# xmcd
#
# Track frame offsets:
# 150
# 12540
# 25427
# 37877
# 48802
# 61407
# 73010
# 85675
# 98437
# 112062
# 124825
# 137990
# 150765
# 163937
# 176350
#
# Disc length: 2532 seconds
#
# Revision: 6
# Processed by: cddbd v1.5.2PL0 Copyright (c) Steve Scherf et al.
# Submitted via: Axialis_AX_CDPlayer 2.6
#
DISCID=bd09e20f
DTITLE=Various Artist - Classic Country Golden '40s Disc 2
DYEAR=1999
DGENRE=Country
TTITLE0=Hank Williams - Lovesick Blues
TTITLE1=Ernest Tubb - Have You Ever Been Lonely (Have You Ever Been Blue)
TTITLE2=Floyd Tillman - I Love You So Much It Hurts
TTITLE3=Gene Autry - You Are My Sunshine
TTITLE4=Jimmy Wakely - One Has My Name (The Other Has My Heart)
TTITLE5=When My Blue Moon Turns To Gold Again/Wiley and Gene
TTITLE6=Pistol Packin' Mama/Al Dexter
TTITLE7=Blues stay away from me/Delmont Brothers
TTITLE8=Why don't you hall off and love me/Wayne Raney
TTITLE9=Stay a little longer/Bob Wills
TTITLE10=Smoke! Smoke! Smoke1 (That cigarette)/Tex Williams
TTITLE11=I'm wastin' my tears on you/Tex Ritter
TTITLE12=Candy kisses/George Morgen
TTITLE13=I'll hold you in my heart (till I can hold you in my arms)/Eddy Arn
TTITLE13=old
TTITLE14=Tennessee waltz. Pee Wee King
EXTD=
EXTT0=
EXTT1=
EXTT2=
EXTT3=
EXTT4=
EXTT5=
EXTT6=
EXTT7=
EXTT8=
EXTT9=
EXTT10=
EXTT11=
EXTT12=
EXTT13=
EXTT14=
PLAYORDER=
